# xmcd
#
# Track frame offsets:
#	150
#	14555
#	27909
#	41489
#	55445
#	67226
#	82007
#	99113
#	115769
#	133549
#	146004
#
# Disc length: 2026 seconds
#
# Revision: 1
# Processed by: cddbd v1.5.2PL0 Copyright (c) Steve Scherf et al.
# Submitted via: audiograbber 1.83.01
#
DISCID=9807e80b
DTITLE=Various Artist - CDX 17
DYEAR=1991
DGENRE=Country
TTITLE0=Tom Wopat - Back To The Well
TTITLE1=Sweetheart f The Rodeo - Devil And Your Deep Blue Eyes
TTITLE2=Shelby Lynne - Don't Cross Your Heart
TTITLE3=Jim Lauderdale - Maybe
TTITLE4=Hank Williams Jr. - Monday Night Football Boogie
TTITLE5=The Kentucky Headhunters - Only Daddy That'll Walk The Line
TTITLE6=Kelly Willis - Settle For Love
TTITLE7=Tracy Lawrence - Sticks And Stones
TTITLE8=Lionel Cartwright - What Kind Of Fool
TTITLE9=Marcy Brothers - Why Not Tonight
TTITLE10=Marcy Brothers - The Star Spangled Banner
EXTD=
EXTT0=
EXTT1=
EXTT2=
EXTT3=
EXTT4=
EXTT5=
EXTT6=
EXTT7=
EXTT8=
EXTT9=
EXTT10=
PLAYORDER=
